<svg version="1.0" xmlns="http://www.w3.org/2000/svg" width="1706.667" height="1706.667" viewBox="0 0 1280 1280"><path d="M603 352.7c-35 3.3-66.5 10.6-95 22-72.7 29-132.6 83.9-167.8 153.8-15.3 30.4-26.9 68.6-31.8 104.5-2.4 17.5-2.4 61.5 0 79 11.6 85.4 52.7 158.4 119.1 211.7 31.9 25.6 70.3 45.4 108.5 56.1 34.7 9.7 58.6 13.2 91.1 13.2 90.4 0 177.9-39.2 237.8-106.5 35.5-39.8 58.7-83.4 72.2-135.5 4.3-16.4 4.5-20.5 1.2-26.1-4.2-7.1-16.4-8.1-21.7-1.8-1.4 1.7-4.2 6-6.3 9.7-33 59.3-88.9 102.6-153.3 118.6-23 5.8-33.7 7-59.5 7.1-24.6 0-35.6-1.2-56.5-6.1-59-13.8-112.2-51-146.4-102.4-16.2-24.2-29.1-54.5-35-82-8.7-40.3-6.9-87.1 4.8-124 3-9.3 10.7-28.3 15.1-37 30.5-60.6 83-104.8 148.4-125 11.5-3.6 14.4-5.7 16-11.7 2.2-7.9-2.5-15.3-10.9-17.2-4.2-1-21.9-1.2-30-.4z"/></svg>